<svg width="18" height="18" viewBox="0 0 18 18" fill="none" xmlns="http://www.w3.org/2000/svg">
<path fill-rule="evenodd" clip-rule="evenodd" d="M7.16888 16.0922C4.41488 16.0922 2.06213 15.6759 2.06213 14.0079C2.06213 12.3399 4.39988 10.8369 7.16888 10.8369C9.92288 10.8369 12.2749 12.3257 12.2749 13.9929C12.2749 15.6602 9.93788 16.0922 7.16888 16.0922Z" stroke="#717171" stroke-linecap="round" stroke-linejoin="round"/>
<path fill-rule="evenodd" clip-rule="evenodd" d="M7.16896 8.45814C8.97645 8.45814 10.442 6.99261 10.442 5.18511C10.442 3.37761 8.97645 1.91211 7.16896 1.91211C5.36146 1.91211 3.89596 3.37761 3.89596 5.18511C3.88921 6.98661 5.34496 8.45214 7.14571 8.45814H7.16896Z" stroke="#717171" stroke-linecap="round" stroke-linejoin="round"/>
<path d="M12.601 7.559C13.6533 7.27773 14.4288 6.31848 14.4288 5.17698C14.4295 3.98598 13.5843 2.99148 12.4608 2.76123" stroke="#717171" stroke-linecap="round" stroke-linejoin="round"/>
<path d="M13.0955 10.2402C14.5865 10.2402 15.86 11.2512 15.86 12.1535C15.86 12.6852 15.4213 13.2312 14.7538 13.388" stroke="#717171" stroke-linecap="round" stroke-linejoin="round"/>
</svg>
