<svg width="16" height="16" viewBox="0 0 16 16" fill="none" xmlns="http://www.w3.org/2000/svg">
<path fill-rule="evenodd" clip-rule="evenodd" d="M7.12593 8.00029C7.12593 8.68229 6.57324 9.23496 5.89124 9.23496C5.20924 9.23496 4.65657 8.68229 4.65657 8.00029C4.65657 7.31829 5.20924 6.76562 5.89124 6.76562H5.89324C6.57457 6.76629 7.12593 7.31896 7.12593 8.00029Z" stroke="#717171" stroke-linecap="round" stroke-linejoin="round"/>
<path d="M7.12793 8H11.3399V9.23467" stroke="#717171" stroke-linecap="round" stroke-linejoin="round"/>
<path d="M9.45473 9.23467V8" stroke="#717171" stroke-linecap="round" stroke-linejoin="round"/>
<path fill-rule="evenodd" clip-rule="evenodd" d="M1.83334 8.00015C1.83334 3.3755 3.37534 1.8335 8 1.8335C12.6247 1.8335 14.1667 3.3755 14.1667 8.00015C14.1667 12.6248 12.6247 14.1668 8 14.1668C3.37534 14.1668 1.83334 12.6248 1.83334 8.00015Z" stroke="#717171" stroke-linecap="round" stroke-linejoin="round"/>
</svg>
