<svg width="16" height="16" viewBox="0 0 16 16" fill="none" xmlns="http://www.w3.org/2000/svg">
<path d="M7.97414 11.0113V9.25928" stroke="#717171" stroke-linecap="round" stroke-linejoin="round"/>
<path d="M14.0597 7.65186L14.0403 7.66586C12.4257 8.66052 10.2937 9.26119 7.971 9.26119C5.64834 9.26119 3.52234 8.66052 1.90834 7.66586L1.88834 7.65186" stroke="#717171" stroke-linecap="round" stroke-linejoin="round"/>
<path fill-rule="evenodd" clip-rule="evenodd" d="M1.8335 8.9003C1.8335 4.79897 3.36883 3.43164 7.97414 3.43164C12.5801 3.43164 14.1148 4.79897 14.1148 8.9003C14.1148 13.0016 12.5801 14.369 7.97414 14.369C3.36883 14.369 1.8335 13.0016 1.8335 8.9003Z" stroke="#717171" stroke-linecap="round" stroke-linejoin="round"/>
<path d="M10.1491 3.57979V3.15979C10.1491 2.31712 9.5338 1.63379 8.7758 1.63379H7.17247C6.41449 1.63379 5.79916 2.31712 5.79916 3.15979V3.57979" stroke="#717171" stroke-linecap="round" stroke-linejoin="round"/>
</svg>
