<svg width="18" height="18" viewBox="0 0 18 18" fill="none" xmlns="http://www.w3.org/2000/svg">
<path fill-rule="evenodd" clip-rule="evenodd" d="M8.88337 16.2465C6.11455 16.2465 3.75 15.8156 3.75 14.0901C3.75 12.3645 6.09955 10.7715 8.88337 10.7715C11.6523 10.7715 14.0168 12.349 14.0168 14.0746C14.0168 15.7995 11.6673 16.2465 8.88337 16.2465Z" stroke="#717171" stroke-linecap="round" stroke-linejoin="round"/>
<path fill-rule="evenodd" clip-rule="evenodd" d="M8.8779 8.38007C10.695 8.38007 12.1677 6.90731 12.1677 5.09027C12.1677 3.27322 10.695 1.7998 8.8779 1.7998C7.06089 1.7998 5.58748 3.27322 5.58748 5.09027C5.58135 6.90117 7.04385 8.37392 8.85472 8.38007C8.8629 8.38007 8.8704 8.38007 8.8779 8.38007Z" stroke="#717171" stroke-linecap="round" stroke-linejoin="round"/>
</svg>
