<svg width="18" height="18" viewBox="0 0 18 18" fill="none" xmlns="http://www.w3.org/2000/svg">
<g id="Profile 3">
<path id="Vector" fill-rule="evenodd" clip-rule="evenodd" d="M8.88337 16.2465C6.11455 16.2465 3.75 15.8156 3.75 14.0901C3.75 12.3645 6.09955 10.7715 8.88337 10.7715C11.6523 10.7715 14.0168 12.349 14.0168 14.0746C14.0168 15.7995 11.6673 16.2465 8.88337 16.2465Z" stroke="#717171" stroke-linecap="round" stroke-linejoin="round"/>
<path id="Vector_2" fill-rule="evenodd" clip-rule="evenodd" d="M8.87784 8.38007C10.6949 8.38007 12.1676 6.90731 12.1676 5.09027C12.1676 3.27322 10.6949 1.7998 8.87784 1.7998C7.06083 1.7998 5.58742 3.27322 5.58742 5.09027C5.58129 6.90117 7.04379 8.37392 8.85466 8.38007C8.86284 8.38007 8.87034 8.38007 8.87784 8.38007Z" stroke="#717171" stroke-linecap="round" stroke-linejoin="round"/>
</g>
</svg>
