<svg width="20" height="20" viewBox="0 0 20 20" fill="none" xmlns="http://www.w3.org/2000/svg">
<g id="qr 1">
<g id="g2565">
<g id="g2567">
<g id="Clip path group">
<mask id="mask0_124_2003" style="mask-type:luminance" maskUnits="userSpaceOnUse" x="2" y="2" width="16" height="16">
<g id="clipPath2573">
<path id="path2571" d="M2.00049 1.99984H18.0002V17.9995H2.00049V1.99984Z" fill="white"/>
</g>
</mask>
<g mask="url(#mask0_124_2003)">
<g id="g2569">
<g id="g2575">
<path id="path2577" d="M6.37541 7.62451H3.87546C3.18513 7.62451 2.62549 7.06487 2.62549 6.37454V3.87459C2.62549 3.18426 3.18513 2.62461 3.87546 2.62461H6.37541C7.06574 2.62461 7.62539 3.18426 7.62539 3.87459V6.37454C7.62539 7.06487 7.06574 7.62451 6.37541 7.62451Z" stroke="#0F0F0F" stroke-miterlimit="10" stroke-linecap="round" stroke-linejoin="round"/>
</g>
<g id="g2579">
<path id="path2581" d="M6.37541 17.3745H3.87546C3.18513 17.3745 2.62549 16.8149 2.62549 16.1245V13.6246C2.62549 12.9343 3.18513 12.3746 3.87546 12.3746H6.37541C7.06574 12.3746 7.62539 12.9343 7.62539 13.6246V16.1245C7.62539 16.8149 7.06574 17.3745 6.37541 17.3745Z" stroke="#0F0F0F" stroke-miterlimit="10" stroke-linecap="round" stroke-linejoin="round"/>
</g>
<g id="g2583">
<path id="path2585" d="M16.1254 7.62451H13.6255C12.9351 7.62451 12.3755 7.06487 12.3755 6.37454V3.87459C12.3755 3.18426 12.9351 2.62461 13.6255 2.62461H16.1254C16.8157 2.62461 17.3754 3.18426 17.3754 3.87459V6.37454C17.3754 7.06487 16.8157 7.62451 16.1254 7.62451Z" stroke="#0F0F0F" stroke-miterlimit="10" stroke-linecap="round" stroke-linejoin="round"/>
</g>
<g id="g2587">
<path id="path2589" d="M10.0005 2.62481V17.3745" stroke="#0F0F0F" stroke-miterlimit="10" stroke-linecap="round" stroke-linejoin="round"/>
</g>
<g id="g2591">
<path id="path2593" d="M2.62549 9.99951H17.3752" stroke="#0F0F0F" stroke-miterlimit="10" stroke-linecap="round" stroke-linejoin="round"/>
</g>
<g id="g2595">
<path id="path2597" d="M5.75046 5.12501C5.75046 4.77983 5.47066 4.50003 5.12548 4.50003C4.78033 4.50003 4.50049 4.77983 4.50049 5.12501C4.50049 5.47019 4.78033 5.75 5.12548 5.75C5.47066 5.75 5.75046 5.47019 5.75046 5.12501Z" fill="#0F0F0F"/>
</g>
<g id="g2599">
<path id="path2601" d="M15.5 5.12501C15.5 4.77983 15.2202 4.50003 14.875 4.50003C14.5298 4.50003 14.25 4.77983 14.25 5.12501C14.25 5.47019 14.5298 5.75 14.875 5.75C15.2202 5.75 15.5 5.47019 15.5 5.12501Z" fill="#0F0F0F"/>
</g>
<g id="g2603">
<path id="path2605" d="M5.75046 14.8745C5.75046 14.5293 5.47066 14.2495 5.12548 14.2495C4.78033 14.2495 4.50049 14.5293 4.50049 14.8745C4.50049 15.2197 4.78033 15.4995 5.12548 15.4995C5.47066 15.4995 5.75046 15.2197 5.75046 14.8745Z" fill="#0F0F0F"/>
</g>
<g id="g2607">
<path id="path2609" d="M14.8755 14.8746H16.1255C16.8158 14.8746 17.3754 15.4342 17.3754 16.1245C17.3754 16.8149 16.8158 17.3745 16.1255 17.3745" stroke="#0F0F0F" stroke-miterlimit="10" stroke-linecap="round" stroke-linejoin="round"/>
</g>
<g id="g2611">
<path id="path2613" d="M13.6255 12.3746C12.9351 12.3746 12.3755 12.9342 12.3755 13.6245V14.8745" stroke="#0F0F0F" stroke-miterlimit="10" stroke-linecap="round" stroke-linejoin="round"/>
</g>
<g id="g2615">
<path id="path2617" d="M12.3755 17.3745H13.6255" stroke="#0F0F0F" stroke-miterlimit="10" stroke-linecap="round" stroke-linejoin="round"/>
</g>
<g id="g2619">
<path id="path2621" d="M16.125 12.375H17.375" stroke="#0F0F0F" stroke-miterlimit="10" stroke-linecap="round" stroke-linejoin="round"/>
</g>
</g>
</g>
</g>
</g>
</g>
</g>
</svg>
