<svg width="16" height="16" viewBox="0 0 16 16" fill="none" xmlns="http://www.w3.org/2000/svg">
<rect width="16" height="16" fill="#F0F0F0"/>
<g id="01_27_Address" clip-path="url(#clip0_2_2)">
<rect width="375" height="877" transform="translate(-45 -134)" fill="#FFFDF6"/>
<g id="Bg">
<g id="Vector" filter="url(#filter0_f_2_2)">
<path fill-rule="evenodd" clip-rule="evenodd" d="M279.925 90C339.059 90 343 168.368 343 227.383C343 270.472 323.1 318 279.925 318C212.142 318 132 295.03 132 227.383C132 148.629 201.011 90 279.925 90Z" fill="#B55D0D"/>
</g>
</g>
<g id="Input_Field">
<g id="Rectangle 955" filter="url(#filter1_d_2_2)">
<rect x="-20" y="-17" width="325" height="50" rx="25" fill="url(#paint0_linear_2_2)" shape-rendering="crispEdges"/>
</g>
<g id="Search 1">
<path id="Vector_2" d="M7.19874 12.3694C10.0401 12.3694 12.3434 10.0661 12.3434 7.22474C12.3434 4.38342 10.0401 2.08008 7.19874 2.08008C4.35742 2.08008 2.05408 4.38342 2.05408 7.22474C2.05408 10.0661 4.35742 12.3694 7.19874 12.3694Z" stroke="#717171" stroke-width="0.96" stroke-linecap="square"/>
<path id="Vector_3" d="M10.7117 11.0132L13.6259 13.9198" stroke="#717171" stroke-width="0.96" stroke-linecap="square"/>
</g>
</g>
</g>
<defs>
<filter id="filter0_f_2_2" x="-168" y="-210" width="811" height="828" filterUnits="userSpaceOnUse" color-interpolation-filters="sRGB">
<feFlood flood-opacity="0" result="BackgroundImageFix"/>
<feBlend mode="normal" in="SourceGraphic" in2="BackgroundImageFix" result="shape"/>
<feGaussianBlur stdDeviation="150" result="effect1_foregroundBlur_2_2"/>
</filter>
<filter id="filter1_d_2_2" x="-50" y="-41" width="385" height="110" filterUnits="userSpaceOnUse" color-interpolation-filters="sRGB">
<feFlood flood-opacity="0" result="BackgroundImageFix"/>
<feColorMatrix in="SourceAlpha" type="matrix" values="0 0 0 0 0 0 0 0 0 0 0 0 0 0 0 0 0 0 127 0" result="hardAlpha"/>
<feOffset dy="6"/>
<feGaussianBlur stdDeviation="15"/>
<feComposite in2="hardAlpha" operator="out"/>
<feColorMatrix type="matrix" values="0 0 0 0 0.65 0 0 0 0 0.582304 0 0 0 0 0.148958 0 0 0 0.15 0"/>
<feBlend mode="normal" in2="BackgroundImageFix" result="effect1_dropShadow_2_2"/>
<feBlend mode="normal" in="SourceGraphic" in2="effect1_dropShadow_2_2" result="shape"/>
</filter>
<linearGradient id="paint0_linear_2_2" x1="142.5" y1="-17" x2="142.5" y2="33" gradientUnits="userSpaceOnUse">
<stop stop-color="white"/>
<stop offset="1" stop-color="white" stop-opacity="0"/>
</linearGradient>
<clipPath id="clip0_2_2">
<rect width="375" height="877" fill="white" transform="translate(-45 -134)"/>
</clipPath>
</defs>
</svg>
