<svg width="16" height="16" viewBox="0 0 16 16" fill="none" xmlns="http://www.w3.org/2000/svg">
<path fill-rule="evenodd" clip-rule="evenodd" d="M8 6.3335C8.9206 6.3335 9.66667 7.07956 9.66667 8.00016C9.66667 8.92076 8.9206 9.66683 8 9.66683C7.0794 9.66683 6.33334 8.92076 6.33334 8.00016C6.33334 7.07956 7.0794 6.3335 8 6.3335Z" stroke="#717171" stroke-linecap="round" stroke-linejoin="round"/>
<path fill-rule="evenodd" clip-rule="evenodd" d="M13.4453 4.83334C12.9897 4.0385 11.9808 3.76653 11.1923 4.22552C10.5065 4.62392 9.6494 4.12542 9.6494 3.32796C9.6494 2.41063 8.9106 1.6665 7.99987 1.6665C7.08914 1.6665 6.35031 2.41063 6.35031 3.32796C6.35031 4.12542 5.49318 4.62392 4.808 4.22552C4.01886 3.76653 3.01005 4.0385 2.55436 4.83334C2.09931 5.62817 2.36933 6.64427 3.15846 7.10257C3.84364 7.50164 3.84364 8.49804 3.15846 8.8971C2.36933 9.35604 2.09931 10.3722 2.55436 11.1664C3.01005 11.9612 4.01886 12.2332 4.80734 11.7748C5.49253 11.3758 6.35031 11.8742 6.35031 12.6717C6.35031 13.589 7.08914 14.3332 7.99987 14.3332C8.9106 14.3332 9.6494 13.589 9.6494 12.6717C9.6494 11.8742 10.5065 11.3758 11.1923 11.7748C11.9808 12.2332 12.9897 11.9612 13.4453 11.1664C13.901 10.3722 13.6303 9.35604 12.8419 8.8971C12.1567 8.49804 12.1561 7.50164 12.8419 7.10257C13.6303 6.64427 13.901 5.62817 13.4453 4.83334Z" stroke="#717171" stroke-linecap="round" stroke-linejoin="round"/>
</svg>
