<svg width="18" height="18" viewBox="0 0 18 18" fill="none" xmlns="http://www.w3.org/2000/svg">
<g id="sharing 1">
<g id="g15">
<g id="g17">
<g id="Clip path group">
<mask id="mask0_124_2034" style="mask-type:luminance" maskUnits="userSpaceOnUse" x="0" y="0" width="18" height="18">
<g id="clipPath23">
<path id="path21" d="M0 1.90735e-06H18V18H0V1.90735e-06Z" fill="white"/>
</g>
</mask>
<g mask="url(#mask0_124_2034)">
<g id="g19">
<g id="g25">
<path id="path27" d="M16.3828 3.16406C16.3828 4.62027 15.2023 5.80078 13.7461 5.80078C12.2899 5.80078 11.1094 4.62027 11.1094 3.16406C11.1094 1.70786 12.2899 0.527344 13.7461 0.527344C15.2023 0.527344 16.3828 1.70786 16.3828 3.16406Z" stroke="#0F0F0F" stroke-miterlimit="10"/>
</g>
<g id="g29">
<path id="path31" d="M7.94531 9C7.94531 10.7475 6.52873 12.1641 4.78125 12.1641C3.03377 12.1641 1.61719 10.7475 1.61719 9C1.61719 7.25252 3.03377 5.83594 4.78125 5.83594C6.52873 5.83594 7.94531 7.25252 7.94531 9Z" stroke="#0F0F0F" stroke-miterlimit="10"/>
</g>
<g id="g33">
<path id="path35" d="M16.3828 14.8359C16.3828 16.2921 15.2023 17.4727 13.7461 17.4727C12.2899 17.4727 11.1094 16.2921 11.1094 14.8359C11.1094 13.3797 12.2899 12.1992 13.7461 12.1992C15.2023 12.1992 16.3828 13.3797 16.3828 14.8359Z" stroke="#0F0F0F" stroke-miterlimit="10"/>
</g>
<g id="g37">
<path id="path39" d="M11.6518 4.76643L7.48145 7.3501" stroke="#0F0F0F" stroke-miterlimit="10"/>
</g>
<g id="g41">
<path id="path43" d="M7.48145 10.6502L11.6518 13.2339" stroke="#0F0F0F" stroke-miterlimit="10"/>
</g>
</g>
</g>
</g>
</g>
</g>
</g>
</svg>
