<svg width="10" height="10" viewBox="0 0 10 10" fill="none" xmlns="http://www.w3.org/2000/svg">
<path fill-rule="evenodd" clip-rule="evenodd" d="M4.9 1.11377C2.0208 1.11377 1 2.13457 1 5.01378C1 7.89298 2.0208 8.91378 4.9 8.91378C7.7792 8.91378 8.8 7.89298 8.8 5.01378C8.8 2.13457 7.7792 1.11377 4.9 1.11377Z" fill="#F3D743"/>
<path d="M4.63648 6.17495L6.53648 4.27655C6.65368 4.15935 6.65368 3.96935 6.53648 3.85215C6.41928 3.73535 6.22928 3.73495 6.11208 3.85215L4.42448 5.53855L3.68808 4.80135C3.57128 4.68495 3.38128 4.68415 3.26368 4.80135C3.14648 4.91855 3.14648 5.10855 3.26368 5.22575L4.21208 6.17495C4.26848 6.23135 4.34488 6.26295 4.42448 6.26295C4.50408 6.26295 4.58008 6.23135 4.63648 6.17495Z" fill="#0F0F0F"/>
</svg>
